<svg width="116" height="57" viewBox="0 0 116 57" fill="none" xmlns="http://www.w3.org/2000/svg">
<path d="M53.5737 42.6533V49.632H54.631V46.311H56.9861V45.3217H54.631V43.6447H57.0711V42.6533H53.5737Z" fill="#CD2812"/>
<path d="M59.022 46.1248C59.022 46.8973 59.2812 47.5313 59.8015 48.027C60.3198 48.5247 60.9169 48.7726 61.5948 48.7726C62.3287 48.7726 62.9507 48.5185 63.4544 48.0125C63.9582 47.5003 64.2111 46.8766 64.2111 46.1414C64.2111 45.4061 63.9624 44.7741 63.4627 44.2702C62.9672 43.7642 62.3515 43.5102 61.6197 43.5102C60.8879 43.5102 60.2763 43.7642 59.7746 44.2702C59.2729 44.77 59.022 45.3875 59.022 46.1228M57.9564 46.1104C57.9564 45.1273 58.3171 44.2847 59.0407 43.5804C59.7601 42.8741 60.6246 42.5229 61.6363 42.5229C62.648 42.5229 63.4897 42.8782 64.2049 43.5886C64.9222 44.2991 65.2788 45.1541 65.2788 46.1517C65.2788 47.1492 64.9181 48.0063 64.1987 48.7044C63.4752 49.4066 62.6044 49.7577 61.5824 49.7577C60.6785 49.7577 59.8658 49.4458 59.1464 48.8221C58.3545 48.1323 57.9585 47.2277 57.9585 46.1104" fill="#CD2812"/>
<path d="M67.665 42.6553V46.8582C67.665 47.4571 67.7624 47.897 67.9594 48.1738C68.2517 48.5744 68.6663 48.7748 69.197 48.7748C69.7278 48.7748 70.1465 48.5744 70.4389 48.1738C70.6358 47.9053 70.7332 47.4674 70.7332 46.8582V42.6553H71.7906V47.1473C71.7906 47.8826 71.5604 48.4877 71.1002 48.9627C70.5819 49.4935 69.9475 49.7579 69.195 49.7579C68.4424 49.7579 67.808 49.4914 67.2939 48.9627C66.8336 48.4877 66.6035 47.8805 66.6035 47.1473V42.6553H67.6608H67.665Z" fill="#CD2812"/>
<path d="M73.4718 49.632H74.5291V44.7476L79.6374 50.0575V42.6534H78.5801V47.5048L73.4718 42.1804V49.632Z" fill="#CD2812"/>
<path d="M82.3719 48.6427H82.8487C83.3234 48.6427 83.7173 48.5931 84.0325 48.494C84.3476 48.3887 84.6316 48.2214 84.8845 47.9921C85.4049 47.5192 85.664 46.9016 85.664 46.1437C85.664 45.3857 85.407 44.7579 84.8928 44.2808C84.4305 43.8553 83.7484 43.6447 82.8466 43.6447H82.3698V48.6427H82.3719ZM81.3145 49.632V42.6533H82.7844C83.4872 42.6533 84.0449 42.7215 84.4533 42.8599C84.8907 42.9962 85.2888 43.2254 85.6454 43.5517C86.3689 44.2085 86.7296 45.0718 86.7296 46.1416C86.7296 47.2114 86.3523 48.083 85.5998 48.7439C85.2224 49.0764 84.8244 49.3057 84.4118 49.4358C84.0242 49.5659 83.4748 49.6299 82.7658 49.6299H81.3145V49.632Z" fill="#CD2812"/>
<path d="M90.3619 44.5739L91.4005 46.9469H89.2714L90.3619 44.5739ZM86.9142 49.6318H88.0524L88.8319 47.9383H91.8297L92.5656 49.6318H93.7225L90.3785 42.2153L86.9121 49.6318H86.9142Z" fill="#CD2812"/>
<path d="M93.4736 42.6533V43.6447H95.0824V49.632H96.1397V43.6447H97.7464V42.6533H93.4736Z" fill="#CD2812"/>
<path d="M99.7471 42.6533H98.6898V49.632H99.7471V42.6533Z" fill="#CD2812"/>
<path d="M102.148 46.1248C102.148 46.8973 102.407 47.5313 102.927 48.027C103.444 48.5247 104.043 48.7726 104.719 48.7726C105.452 48.7726 106.074 48.5185 106.578 48.0125C107.084 47.5003 107.337 46.8766 107.337 46.1414C107.337 45.4061 107.086 44.7741 106.588 44.2702C106.093 43.7642 105.477 43.5102 104.748 43.5102C104.018 43.5102 103.404 43.7642 102.9 44.2702C102.399 44.77 102.148 45.3875 102.148 46.1228M101.082 46.1104C101.082 45.1273 101.443 44.2847 102.166 43.5804C102.886 42.8741 103.75 42.5229 104.762 42.5229C105.774 42.5229 106.615 42.8782 107.331 43.5886C108.048 44.2991 108.407 45.1541 108.407 46.1517C108.407 47.1492 108.046 48.0063 107.327 48.7044C106.603 49.4066 105.732 49.7577 104.71 49.7577C103.806 49.7577 102.994 49.4458 102.274 48.8221C101.482 48.1323 101.086 47.2277 101.086 46.1104" fill="#CD2812"/>
<path d="M109.731 49.632H110.789V44.7476L115.897 50.0575V42.6534H114.84V47.5048L109.731 42.1804V49.632Z" fill="#CD2812"/>
<path d="M54.9071 38.7356H55.3287C55.6476 38.7356 55.9328 38.6855 56.1845 38.5852C56.4341 38.4849 56.6459 38.3491 56.82 38.1735C56.992 37.998 57.1242 37.7912 57.2144 37.5509C57.3045 37.3106 57.3507 37.0473 57.3507 36.7589C57.3507 36.4706 57.3045 36.2157 57.2102 35.9733C57.1158 35.7288 56.9836 35.5198 56.8116 35.3464C56.6397 35.1709 56.4278 35.0351 56.1761 34.9348C55.9265 34.8345 55.6434 34.7843 55.3308 34.7843H54.9092V38.7356H54.9071ZM53.0635 33.2297H55.7902C56.2726 33.2297 56.7256 33.3259 57.1493 33.5202C57.573 33.7124 57.9422 33.9715 58.2589 34.2933C58.5756 34.6151 58.8252 34.9891 59.0056 35.4175C59.186 35.8458 59.2783 36.293 59.2783 36.761C59.2783 37.2291 59.1881 37.6679 59.0098 38.0962C58.8315 38.5246 58.584 38.8986 58.2673 39.2246C57.9506 39.5484 57.5814 39.8075 57.1577 40.0019C56.734 40.1941 56.2789 40.2923 55.7902 40.2923H53.0635V33.2318V33.2297Z" fill="#CD2812"/>
<path d="M62.2944 33.2273H60.4528V40.2878H62.2944V33.2273Z" fill="#CD2812"/>
<path d="M67.6345 37.6679L66.806 35.3172L65.9796 37.6679H67.6345ZM68.1232 39.0637H65.4909L65.0672 40.2902H63.1019L65.7992 33.2297H67.8107L70.508 40.2902H68.5427L68.119 39.0637H68.1232Z" fill="#CD2812"/>
<path d="M73.1612 38.8647H73.566C74.0296 38.8647 74.361 38.8041 74.5623 38.6871C74.7637 38.568 74.8623 38.3779 74.8623 38.1167C74.8623 37.8555 74.7616 37.6633 74.5623 37.5442C74.361 37.4251 74.0296 37.3665 73.566 37.3665H73.1612V38.8647ZM73.1612 36H73.4989C74.0757 36 74.3652 35.7722 74.3652 35.3167C74.3652 34.8612 74.0757 34.6335 73.4989 34.6335H73.1612V36ZM71.3196 33.2272H74.0652C74.7175 33.2272 75.2125 33.3839 75.5502 33.6953C75.89 34.0066 76.0578 34.4559 76.0578 35.043C76.0578 35.3982 75.9928 35.6928 75.8648 35.9269C75.7369 36.1609 75.5397 36.3594 75.2776 36.5203C75.5397 36.5704 75.7642 36.6478 75.9487 36.7501C76.1333 36.8525 76.2843 36.98 76.3997 37.1283C76.5151 37.2788 76.599 37.448 76.6493 37.634C76.6996 37.8221 76.7248 38.0206 76.7248 38.2316C76.7248 38.5638 76.6661 38.8564 76.5507 39.1113C76.4354 39.3683 76.2717 39.5835 76.062 39.757C75.8523 39.9304 75.5964 40.062 75.2964 40.1498C74.9965 40.2375 74.6567 40.2814 74.2813 40.2814H71.3196V33.2209V33.2272Z" fill="#CD2812"/>
<path d="M81.8554 34.7819H79.6656V35.9625H81.7337V37.5171H79.6656V38.7353H81.8554V40.2899H77.8241V33.2273H81.8554V34.7819Z" fill="#CD2812"/>
<path d="M85.8699 34.7819V40.2899H84.0263V34.7819H82.514V33.2273H87.3822V34.7819H85.8699Z" fill="#CD2812"/>
<path d="M92.2336 34.7819H90.0439V35.9625H92.112V37.5171H90.0439V38.7353H92.2336V40.2899H88.2002V33.2273H92.2336V34.7819Z" fill="#CD2812"/>
<path d="M97.45 35.0347C97.2486 34.8717 97.0494 34.7526 96.848 34.6753C96.6467 34.598 96.4537 34.5583 96.2649 34.5583C96.0258 34.5583 95.8328 34.6147 95.6818 34.7276C95.5308 34.8404 95.4553 34.9867 95.4553 35.1684C95.4553 35.2938 95.493 35.3962 95.5686 35.4777C95.6441 35.5592 95.7426 35.6302 95.8643 35.6887C95.988 35.7493 96.1244 35.7995 96.2775 35.8434C96.4306 35.8872 96.5837 35.9332 96.7326 35.9834C97.3346 36.1839 97.7751 36.4493 98.054 36.7836C98.333 37.118 98.4735 37.5526 98.4735 38.0896C98.4735 38.4532 98.4127 38.7791 98.289 39.0717C98.1673 39.3663 97.989 39.617 97.752 39.826C97.5171 40.0349 97.2276 40.1979 96.8879 40.3128C96.546 40.4278 96.16 40.4863 95.7259 40.4863C94.8302 40.4863 93.9997 40.2209 93.2362 39.6902L94.0248 38.2108C94.2996 38.4553 94.5723 38.635 94.8428 38.7541C95.1134 38.8732 95.3798 38.9317 95.642 38.9317C95.9419 38.9317 96.1663 38.8627 96.3152 38.7269C96.4621 38.589 96.5355 38.4323 96.5355 38.2588C96.5355 38.1523 96.5166 38.0603 96.4789 37.983C96.4411 37.9057 96.3782 37.8326 96.2901 37.7678C96.202 37.703 96.0887 37.6424 95.9461 37.586C95.8056 37.5296 95.6336 37.4669 95.4343 37.398C95.1952 37.3227 94.9624 37.2392 94.7338 37.1493C94.5051 37.0595 94.3017 36.9383 94.1234 36.7899C93.9451 36.6395 93.8004 36.4514 93.6913 36.2236C93.5823 35.9959 93.5277 35.7075 93.5277 35.3565C93.5277 35.0055 93.5844 34.6899 93.7018 34.4058C93.8172 34.1216 93.9808 33.8792 94.1905 33.6744C94.4003 33.4697 94.6583 33.315 94.9624 33.2022C95.2665 33.0894 95.6063 33.033 95.9818 33.033C96.332 33.033 96.6991 33.081 97.0808 33.1792C97.4626 33.2774 97.8296 33.4174 98.1799 33.6055L97.4458 35.0389L97.45 35.0347Z" fill="#CD2812"/>
<path d="M55.9826 28.7969L54.1912 24.2178H53.0635L55.9867 31.5082L57.8309 26.6493L59.5979 31.5042L62.6717 24.2178H61.5439L59.6427 28.7969L57.8533 23.8853L55.9826 28.7969Z" fill="#CD2812"/>
<path d="M63.9195 27.6243C63.9195 28.3828 64.1739 29.0054 64.6849 29.4921C65.1918 29.9808 65.7801 30.2242 66.4437 30.2242C67.1643 30.2242 67.775 29.9747 68.2696 29.4779C68.7643 28.975 69.0147 28.3625 69.0147 27.6406C69.0147 26.9186 68.7684 26.2981 68.2798 25.8033C67.7933 25.3064 67.1887 25.057 66.4701 25.057C65.7516 25.057 65.151 25.3064 64.6584 25.8033C64.1658 26.294 63.9195 26.9004 63.9195 27.6223M62.8732 27.6102C62.8732 26.6449 63.2274 25.8175 63.9378 25.1259C64.6442 24.4324 65.493 24.0876 66.4864 24.0876C67.4798 24.0876 68.3063 24.4365 69.0086 25.1341C69.7129 25.8317 70.0651 26.6712 70.0651 27.6507C70.0651 28.6302 69.7109 29.4718 69.0045 30.1572C68.2941 30.8467 67.4391 31.1915 66.4355 31.1915C65.548 31.1915 64.75 30.8853 64.0437 30.2728C63.266 29.5955 62.8772 28.7073 62.8772 27.6102" fill="#CD2812"/>
<path d="M72.4061 27.3622H72.7358C73.719 27.3622 74.2096 26.989 74.2096 26.2387C74.2096 25.5371 73.7313 25.1862 72.7745 25.1862H72.404V27.3602L72.4061 27.3622ZM73.6966 28.147L75.8259 31.0672H74.5557L72.5913 28.2626H72.404V31.0672H71.3658V24.2148H72.5811C73.489 24.2148 74.1465 24.3852 74.5496 24.7259C74.9954 25.1051 75.2173 25.604 75.2173 26.2265C75.2173 26.7112 75.0768 27.129 74.7979 27.4778C74.519 27.8266 74.1506 28.0497 73.6926 28.147" fill="#CD2812"/>
<path d="M77.8984 24.2183V30.0972H79.9198V31.0686H76.8602V24.2183H77.8984Z" fill="#CD2812"/>
<path d="M81.9408 30.0958H82.409C82.8751 30.0958 83.2619 30.0472 83.5713 29.9498C83.8787 29.8464 84.1576 29.6821 84.408 29.457C84.9189 28.9926 85.1734 28.3863 85.1734 27.642C85.1734 26.8978 84.9209 26.2813 84.4161 25.8129C83.9622 25.3951 83.2924 25.1882 82.4069 25.1882H81.9387V30.0958H81.9408ZM80.9026 31.0672V24.2148H82.3459C83.038 24.2148 83.5835 24.2818 83.9845 24.4176C84.4141 24.5515 84.8049 24.7766 85.1571 25.097C85.8655 25.7419 86.2217 26.5895 86.2217 27.64C86.2217 28.6905 85.8512 29.5463 85.1123 30.1972C84.7418 30.5217 84.351 30.7488 83.9459 30.8766C83.5652 31.0043 83.0258 31.0672 82.3296 31.0672H80.9046H80.9026Z" fill="#CD2812"/>
<path d="M26.7553 49.6889V23.8244H35.962C30.0754 12.54 20.1471 0 20.1471 0C20.1471 0 0 25.3275 0 36.3863C0 47.4451 8.99896 56.41 20.1015 56.41C26.076 56.41 31.4406 53.8111 35.1223 49.6889H26.7536H26.7553Z" fill="#CD2812"/>
<path d="M35.9604 23.8245C38.439 28.5779 40.1996 33.1091 40.1996 36.3864C40.1996 41.4933 38.2785 46.1525 35.1206 49.6889H46.899V23.8245H35.9587H35.9604Z" fill="#CD2812"/>
</svg>
